<svg xmlns="http://www.w3.org/2000/svg" width="386" height="210" viewBox="0 0 386 210">
  <g fill="none" fill-rule="evenodd">
    <g transform="translate(281.204 52.5)">
      <path fill="#FF8166" d="M104.79638,52.5 C104.79638,81.4949494 81.3369113,105 52.39819,105 C23.4594688,105 3.54397124e-15,81.4949494 0,52.5 L104.79638,52.5 Z M34.9321267,52.5 C34.9321267,62.1649831 42.7519496,70 52.39819,70 C62.0444305,70 69.8642534,62.1649831 69.8642534,52.5 L34.9321267,52.5 Z"/>
      <path fill="#FFCA52" d="M104.79638,0 C104.79638,28.9949494 81.3369113,52.5 52.39819,52.5 C23.4594688,52.5 3.54397124e-15,28.9949494 0,0 L104.79638,0 Z M34.9321267,0 C34.9321267,9.66498312 42.7519496,17.5 52.39819,17.5 C62.0444305,17.5 69.8642534,9.66498312 69.8642534,0 L34.9321267,0 Z" transform="matrix(1 0 0 -1 0 52.5)"/>
      <rect width="34.932" height="105" x="69.864" y="52.5" fill="#FCF4EB"/>
    </g>
    <g transform="translate(228.805)">
      <rect width="34.932" height="105" y="52.5" fill="#FCF4EB"/>
      <rect width="34.932" height="35" fill="#FF8166" rx="17.466"/>
    </g>
    <g transform="translate(108.036 35)">
      <path fill="#F34F5A" d="M37.6179543,63.128962 L7.36423742,63.128962 L7.36423742,63.0095373 C7.36423742,37.9465376 27.681813,17.628962 52.7448127,17.628962 C77.8078124,17.628962 98.125388,37.9465376 98.125388,63.0095373 L98.125388,63.1886743 L98.125388,63.128962 L67.8716712,63.128962 L67.8716712,63.0891537 C67.8716712,54.7348205 61.0991459,47.9622953 52.7448127,47.9622953 C44.3904795,47.9622953 37.6179543,54.7348205 37.6179543,63.0891537 L37.6179543,63.128962 Z" transform="rotate(-26 52.745 40.387)"/>
      <rect width="34.932" height="105" x="14.226" y="17.5" fill="#FFCA52"/>
    </g>
    <path fill="#FF8166" d="M104.79638,105 C104.79638,133.994949 81.3369113,157.5 52.39819,157.5 C23.4594688,157.5 3.54397124e-15,133.994949 0,105 L104.79638,105 Z M34.9321267,105 C34.9321267,114.664983 42.7519496,122.5 52.39819,122.5 C62.0444305,122.5 69.8642534,114.664983 69.8642534,105 L34.9321267,105 Z"/>
    <path fill="#FFCA52" d="M104.79638,105 C104.79638,133.994949 81.3369113,157.5 52.39819,157.5 C23.4594688,157.5 3.54397124e-15,133.994949 0,105 L104.79638,105 Z M34.9321267,105 C34.9321267,114.664983 42.7519496,122.5 52.39819,122.5 C62.0444305,122.5 69.8642534,114.664983 69.8642534,105 L34.9321267,105 Z" transform="matrix(1 0 0 -1 0 210)"/>
    <rect width="34.932" height="105" fill="#FCF4EB"/>
  </g>
</svg>
